<mxfile host="app.diagrams.net" agent="Mozilla/5.0 (Windows NT 10.0; Win64; x64) AppleWebKit/537.36 (KHTML, like Gecko) Chrome/136.0.0.0 Safari/537.36 Edg/136.0.0.0" version="26.2.14">
  <diagram name="Page-1" id="bUNV6CQoqxYgR7CWkr8B">
    <mxGraphModel dx="1281" dy="616" grid="1" gridSize="10" guides="1" tooltips="1" connect="1" arrows="1" fold="1" page="1" pageScale="1" pageWidth="850" pageHeight="1100" math="0" shadow="0">
      <root>
        <mxCell id="0" />
        <mxCell id="1" parent="0" />
        <mxCell id="qKRXkZux-SzTKokGDgF--4" value="Attribute" style="ellipse;whiteSpace=wrap;html=1;align=center;" vertex="1" parent="1">
          <mxGeometry x="300" y="170" width="100" height="40" as="geometry" />
        </mxCell>
        <mxCell id="qKRXkZux-SzTKokGDgF--10" style="edgeStyle=orthogonalEdgeStyle;rounded=0;orthogonalLoop=1;jettySize=auto;html=1;entryX=0.5;entryY=1;entryDx=0;entryDy=0;" edge="1" parent="1" source="qKRXkZux-SzTKokGDgF--5" target="qKRXkZux-SzTKokGDgF--8">
          <mxGeometry relative="1" as="geometry" />
        </mxCell>
        <mxCell id="qKRXkZux-SzTKokGDgF--11" style="edgeStyle=orthogonalEdgeStyle;rounded=0;orthogonalLoop=1;jettySize=auto;html=1;entryX=0.5;entryY=1;entryDx=0;entryDy=0;" edge="1" parent="1" source="qKRXkZux-SzTKokGDgF--5" target="qKRXkZux-SzTKokGDgF--7">
          <mxGeometry relative="1" as="geometry" />
        </mxCell>
        <mxCell id="qKRXkZux-SzTKokGDgF--5" value="Entity" style="whiteSpace=wrap;html=1;align=center;" vertex="1" parent="1">
          <mxGeometry x="440" y="170" width="100" height="40" as="geometry" />
        </mxCell>
        <mxCell id="qKRXkZux-SzTKokGDgF--6" value="hb" style="ellipse;whiteSpace=wrap;html=1;align=center;" vertex="1" parent="1">
          <mxGeometry x="610" y="100" width="100" height="40" as="geometry" />
        </mxCell>
        <mxCell id="qKRXkZux-SzTKokGDgF--7" value="Attribute" style="ellipse;whiteSpace=wrap;html=1;align=center;" vertex="1" parent="1">
          <mxGeometry x="480" y="50" width="100" height="40" as="geometry" />
        </mxCell>
        <mxCell id="qKRXkZux-SzTKokGDgF--8" value="Attribute" style="ellipse;whiteSpace=wrap;html=1;align=center;" vertex="1" parent="1">
          <mxGeometry x="340" y="50" width="100" height="40" as="geometry" />
        </mxCell>
        <mxCell id="qKRXkZux-SzTKokGDgF--9" value="Attribute" style="ellipse;whiteSpace=wrap;html=1;align=center;" vertex="1" parent="1">
          <mxGeometry x="400" y="270" width="100" height="40" as="geometry" />
        </mxCell>
      </root>
    </mxGraphModel>
  </diagram>
</mxfile>
